<mxfile host="app.diagrams.net" agent="Mozilla/5.0 (Macintosh; Intel Mac OS X 10_15_7) AppleWebKit/537.36 (KHTML, like Gecko) Chrome/131.0.0.0 Safari/537.36 Edg/131.0.0.0" version="26.2.14">
  <diagram id="C5RBs43oDa-KdzZeNtuy" name="Page-1">
    <mxGraphModel dx="1355" dy="907" grid="1" gridSize="10" guides="1" tooltips="1" connect="1" arrows="1" fold="1" page="1" pageScale="1" pageWidth="827" pageHeight="1169" math="0" shadow="0">
      <root>
        <mxCell id="WIyWlLk6GJQsqaUBKTNV-0" />
        <mxCell id="WIyWlLk6GJQsqaUBKTNV-1" parent="WIyWlLk6GJQsqaUBKTNV-0" />
        <mxCell id="E6ekyYOvY4KQUvuGbgyF-14" style="edgeStyle=orthogonalEdgeStyle;rounded=0;orthogonalLoop=1;jettySize=auto;html=1;entryX=0.5;entryY=0;entryDx=0;entryDy=0;" edge="1" parent="WIyWlLk6GJQsqaUBKTNV-1" source="E6ekyYOvY4KQUvuGbgyF-0" target="E6ekyYOvY4KQUvuGbgyF-1">
          <mxGeometry relative="1" as="geometry" />
        </mxCell>
        <mxCell id="E6ekyYOvY4KQUvuGbgyF-0" value="start" style="ellipse;whiteSpace=wrap;html=1;aspect=fixed;" vertex="1" parent="WIyWlLk6GJQsqaUBKTNV-1">
          <mxGeometry x="334" y="70" width="50" height="50" as="geometry" />
        </mxCell>
        <mxCell id="E6ekyYOvY4KQUvuGbgyF-1" value="k=0,j=0" style="rounded=0;whiteSpace=wrap;html=1;" vertex="1" parent="WIyWlLk6GJQsqaUBKTNV-1">
          <mxGeometry x="298.5" y="160" width="121" height="40" as="geometry" />
        </mxCell>
        <mxCell id="E6ekyYOvY4KQUvuGbgyF-11" style="edgeStyle=orthogonalEdgeStyle;rounded=0;orthogonalLoop=1;jettySize=auto;html=1;entryX=0.5;entryY=0;entryDx=0;entryDy=0;exitX=1;exitY=0.5;exitDx=0;exitDy=0;exitPerimeter=0;" edge="1" parent="WIyWlLk6GJQsqaUBKTNV-1" source="E6ekyYOvY4KQUvuGbgyF-2" target="E6ekyYOvY4KQUvuGbgyF-4">
          <mxGeometry relative="1" as="geometry" />
        </mxCell>
        <mxCell id="E6ekyYOvY4KQUvuGbgyF-2" value="（X &amp;gt; 3）&amp;amp;&amp;amp; (Z&amp;lt;10)" style="strokeWidth=2;html=1;shape=mxgraph.flowchart.decision;whiteSpace=wrap;" vertex="1" parent="WIyWlLk6GJQsqaUBKTNV-1">
          <mxGeometry x="237.25" y="230" width="243.5" height="40" as="geometry" />
        </mxCell>
        <mxCell id="E6ekyYOvY4KQUvuGbgyF-10" style="edgeStyle=orthogonalEdgeStyle;rounded=0;orthogonalLoop=1;jettySize=auto;html=1;entryX=0.5;entryY=0;entryDx=0;entryDy=0;exitX=1;exitY=0.5;exitDx=0;exitDy=0;exitPerimeter=0;" edge="1" parent="WIyWlLk6GJQsqaUBKTNV-1" source="E6ekyYOvY4KQUvuGbgyF-3" target="E6ekyYOvY4KQUvuGbgyF-8">
          <mxGeometry relative="1" as="geometry" />
        </mxCell>
        <mxCell id="E6ekyYOvY4KQUvuGbgyF-19" style="edgeStyle=orthogonalEdgeStyle;rounded=0;orthogonalLoop=1;jettySize=auto;html=1;entryX=0.5;entryY=0;entryDx=0;entryDy=0;" edge="1" parent="WIyWlLk6GJQsqaUBKTNV-1" source="E6ekyYOvY4KQUvuGbgyF-3" target="E6ekyYOvY4KQUvuGbgyF-16">
          <mxGeometry relative="1" as="geometry" />
        </mxCell>
        <mxCell id="E6ekyYOvY4KQUvuGbgyF-3" value="(X == 4) || (Y &amp;gt;5)" style="strokeWidth=2;html=1;shape=mxgraph.flowchart.decision;whiteSpace=wrap;" vertex="1" parent="WIyWlLk6GJQsqaUBKTNV-1">
          <mxGeometry x="237.25" y="390" width="243.5" height="40" as="geometry" />
        </mxCell>
        <mxCell id="E6ekyYOvY4KQUvuGbgyF-6" value="" style="edgeStyle=orthogonalEdgeStyle;rounded=0;orthogonalLoop=1;jettySize=auto;html=1;" edge="1" parent="WIyWlLk6GJQsqaUBKTNV-1" source="E6ekyYOvY4KQUvuGbgyF-4" target="E6ekyYOvY4KQUvuGbgyF-5">
          <mxGeometry relative="1" as="geometry" />
        </mxCell>
        <mxCell id="E6ekyYOvY4KQUvuGbgyF-4" value="k=x*y-1" style="rounded=0;whiteSpace=wrap;html=1;" vertex="1" parent="WIyWlLk6GJQsqaUBKTNV-1">
          <mxGeometry x="440" y="280" width="120" height="30" as="geometry" />
        </mxCell>
        <mxCell id="E6ekyYOvY4KQUvuGbgyF-5" value="j=sqrt(k)" style="rounded=0;whiteSpace=wrap;html=1;" vertex="1" parent="WIyWlLk6GJQsqaUBKTNV-1">
          <mxGeometry x="440" y="320" width="120" height="30" as="geometry" />
        </mxCell>
        <mxCell id="E6ekyYOvY4KQUvuGbgyF-7" value="" style="edgeStyle=orthogonalEdgeStyle;rounded=0;orthogonalLoop=1;jettySize=auto;html=1;" edge="1" parent="WIyWlLk6GJQsqaUBKTNV-1" source="E6ekyYOvY4KQUvuGbgyF-8" target="E6ekyYOvY4KQUvuGbgyF-9">
          <mxGeometry relative="1" as="geometry" />
        </mxCell>
        <mxCell id="E6ekyYOvY4KQUvuGbgyF-8" value="j=x*y+10" style="rounded=0;whiteSpace=wrap;html=1;" vertex="1" parent="WIyWlLk6GJQsqaUBKTNV-1">
          <mxGeometry x="440" y="433" width="120" height="30" as="geometry" />
        </mxCell>
        <mxCell id="E6ekyYOvY4KQUvuGbgyF-17" style="edgeStyle=orthogonalEdgeStyle;rounded=0;orthogonalLoop=1;jettySize=auto;html=1;entryX=0.5;entryY=0;entryDx=0;entryDy=0;" edge="1" parent="WIyWlLk6GJQsqaUBKTNV-1" source="E6ekyYOvY4KQUvuGbgyF-9" target="E6ekyYOvY4KQUvuGbgyF-16">
          <mxGeometry relative="1" as="geometry" />
        </mxCell>
        <mxCell id="E6ekyYOvY4KQUvuGbgyF-9" value="j=j%3" style="rounded=0;whiteSpace=wrap;html=1;" vertex="1" parent="WIyWlLk6GJQsqaUBKTNV-1">
          <mxGeometry x="440" y="473" width="120" height="30" as="geometry" />
        </mxCell>
        <mxCell id="E6ekyYOvY4KQUvuGbgyF-12" style="edgeStyle=orthogonalEdgeStyle;rounded=0;orthogonalLoop=1;jettySize=auto;html=1;entryX=0.5;entryY=0;entryDx=0;entryDy=0;entryPerimeter=0;" edge="1" parent="WIyWlLk6GJQsqaUBKTNV-1" source="E6ekyYOvY4KQUvuGbgyF-2" target="E6ekyYOvY4KQUvuGbgyF-3">
          <mxGeometry relative="1" as="geometry" />
        </mxCell>
        <mxCell id="E6ekyYOvY4KQUvuGbgyF-13" style="edgeStyle=orthogonalEdgeStyle;rounded=0;orthogonalLoop=1;jettySize=auto;html=1;entryX=0.5;entryY=0;entryDx=0;entryDy=0;entryPerimeter=0;" edge="1" parent="WIyWlLk6GJQsqaUBKTNV-1" source="E6ekyYOvY4KQUvuGbgyF-5" target="E6ekyYOvY4KQUvuGbgyF-3">
          <mxGeometry relative="1" as="geometry" />
        </mxCell>
        <mxCell id="E6ekyYOvY4KQUvuGbgyF-15" style="edgeStyle=orthogonalEdgeStyle;rounded=0;orthogonalLoop=1;jettySize=auto;html=1;entryX=0.5;entryY=0;entryDx=0;entryDy=0;entryPerimeter=0;" edge="1" parent="WIyWlLk6GJQsqaUBKTNV-1" source="E6ekyYOvY4KQUvuGbgyF-1" target="E6ekyYOvY4KQUvuGbgyF-2">
          <mxGeometry relative="1" as="geometry" />
        </mxCell>
        <mxCell id="E6ekyYOvY4KQUvuGbgyF-16" value="end" style="ellipse;whiteSpace=wrap;html=1;aspect=fixed;" vertex="1" parent="WIyWlLk6GJQsqaUBKTNV-1">
          <mxGeometry x="334" y="540" width="50" height="50" as="geometry" />
        </mxCell>
        <mxCell id="E6ekyYOvY4KQUvuGbgyF-20" value="T" style="text;html=1;align=center;verticalAlign=middle;whiteSpace=wrap;rounded=0;" vertex="1" parent="WIyWlLk6GJQsqaUBKTNV-1">
          <mxGeometry x="480.75" y="230" width="60" height="30" as="geometry" />
        </mxCell>
        <mxCell id="E6ekyYOvY4KQUvuGbgyF-21" value="T" style="text;html=1;align=center;verticalAlign=middle;whiteSpace=wrap;rounded=0;" vertex="1" parent="WIyWlLk6GJQsqaUBKTNV-1">
          <mxGeometry x="480.75" y="395" width="60" height="30" as="geometry" />
        </mxCell>
        <mxCell id="E6ekyYOvY4KQUvuGbgyF-22" value="F" style="text;html=1;align=center;verticalAlign=middle;whiteSpace=wrap;rounded=0;" vertex="1" parent="WIyWlLk6GJQsqaUBKTNV-1">
          <mxGeometry x="310" y="433" width="60" height="30" as="geometry" />
        </mxCell>
        <mxCell id="E6ekyYOvY4KQUvuGbgyF-23" value="F" style="text;html=1;align=center;verticalAlign=middle;whiteSpace=wrap;rounded=0;" vertex="1" parent="WIyWlLk6GJQsqaUBKTNV-1">
          <mxGeometry x="310" y="280" width="60" height="30" as="geometry" />
        </mxCell>
      </root>
    </mxGraphModel>
  </diagram>
</mxfile>
